<?xml version="1.0" encoding="UTF-8" standalone="no"?>
<svg
   xmlns:dc="http://purl.org/dc/elements/1.1/"
   xmlns:cc="http://creativecommons.org/ns#"
   xmlns:rdf="http://www.w3.org/1999/02/22-rdf-syntax-ns#"
   xmlns:svg="http://www.w3.org/2000/svg"
   xmlns="http://www.w3.org/2000/svg"
   xmlns:sodipodi="http://sodipodi.sourceforge.net/DTD/sodipodi-0.dtd"
   xmlns:inkscape="http://www.inkscape.org/namespaces/inkscape"
   width="176.25833mm"
   height="176.25833mm"
   viewBox="0 0 176.25833 176.25833"
   version="1.1"
   id="svg8"
   inkscape:version="1.0.2 (e86c870879, 2021-01-15)"
   sodipodi:docname="matel-sty01.svg">
  <defs
     id="defs2" />
  <sodipodi:namedview
     id="base"
     pagecolor="#ffffff"
     bordercolor="#666666"
     borderopacity="1.0"
     inkscape:pageopacity="0.0"
     inkscape:pageshadow="2"
     inkscape:zoom="0.7"
     inkscape:cx="180.29194"
     inkscape:cy="355.7182"
     inkscape:document-units="mm"
     inkscape:current-layer="layer1"
     inkscape:document-rotation="0"
     showgrid="false"
     inkscape:window-width="1024"
     inkscape:window-height="768"
     inkscape:window-x="0"
     inkscape:window-y="0"
     inkscape:window-maximized="0" />
  <metadata
     id="metadata5">
    <rdf:RDF>
      <cc:Work
         rdf:about="">
        <dc:format>image/svg+xml</dc:format>
        <dc:type
           rdf:resource="http://purl.org/dc/dcmitype/StillImage" />
        <dc:title></dc:title>
      </cc:Work>
    </rdf:RDF>
  </metadata>
  <g
     inkscape:label="Layer 1"
     inkscape:groupmode="layer"
     id="layer1"
     transform="translate(-14.963913,-78.347122)">
    <path
       sodipodi:type="star"
       style="fill:#ff0000;stroke-width:0.264583"
       id="path10"
       sodipodi:sides="32"
       sodipodi:cx="103.09308"
       sodipodi:cy="166.47629"
       sodipodi:r1="88.129166"
       sodipodi:r2="75.791084"
       sodipodi:arg1="0"
       sodipodi:arg2="0.09817477"
       inkscape:flatsided="false"
       inkscape:rounded="0"
       inkscape:randomized="0"
       d="m 191.22224,166.47629 -12.70303,7.42882 11.00966,9.76433 -13.90825,4.80784 8.89319,11.72458 -14.57896,2.0021 6.43495,13.23427 -14.68942,-0.88059 3.72943,14.23538 -14.23538,-3.72943 0.88059,14.68942 -13.23427,-6.43495 -2.0021,14.57896 -11.72458,-8.89319 -4.80784,13.90825 -9.76433,-11.00966 -7.42882,12.70303 -7.428827,-12.70303 -9.764322,11.00966 -4.807843,-13.90825 -11.724581,8.89319 -2.002098,-14.57896 -13.234271,6.43495 0.880586,-14.68942 -14.235376,3.72943 3.72943,-14.23538 -14.689423,0.88059 6.434955,-13.23427 -14.578964,-2.0021 8.893187,-11.72458 -13.908243,-4.80784 11.009659,-9.76433 -12.703036,-7.42882 12.703036,-7.42883 -11.009659,-9.76432 13.908243,-4.80784 -8.893187,-11.72458 14.578964,-2.0021 -6.434955,-13.23427 14.689423,0.88058 -3.72943,-14.23537 14.235376,3.72943 -0.880586,-14.689425 13.234271,6.434954 2.002098,-14.578964 11.724581,8.893187 4.807843,-13.908243 9.764322,11.009659 7.428827,-12.703036 7.42882,12.703036 9.76433,-11.009659 4.80784,13.908243 11.72458,-8.893187 2.0021,14.578964 13.23427,-6.434954 -0.88059,14.689425 14.23538,-3.72943 -3.72943,14.23537 14.68942,-0.88058 -6.43495,13.23427 14.57896,2.0021 -8.89319,11.72458 13.90825,4.80784 -11.00966,9.76432 z"
       inkscape:transform-center-x="1.2988104e-06"
       inkscape:transform-center-y="-2.0973391e-06" />
    <g
       aria-label="λ"
       transform="rotate(-15)"
       id="text14"
       style="font-size:91.9584px;line-height:1.25;font-family:'Courier New';-inkscape-font-specification:'Courier New';letter-spacing:0px;fill:#ffffff;stroke-width:0.47895">
      <path
         d="m 31.44233,215.93329 28.108377,-37.71731 q 1.032736,-1.39195 1.212343,-1.84097 0.179606,-0.44901 0.179606,-1.84096 v -5.97191 q 0,-2.28998 -0.0898,-3.45742 -0.0898,-1.21234 -0.449016,-3.18801 -0.359212,-1.97567 -1.391948,-2.9186 -1.032736,-0.98784 -2.649192,-0.98784 -2.28998,0 -4.355452,1.79607 -2.02057,1.79606 -2.379783,1.79606 -0.898031,0 -0.898031,-0.94293 0,-0.53882 1.167441,-2.739 1.212342,-2.20017 3.502322,-4.49015 2.289979,-2.33489 4.579959,-2.33489 2.02057,0 3.367617,1.43685 1.347047,1.43685 1.840964,3.99624 0.493917,2.55939 0.673523,4.75957 0.224508,2.15527 0.224508,5.07388 v 33.67617 q 0,5.34328 0.493917,7.63326 0.493917,2.28998 1.885866,2.28998 1.212342,0 2.783897,-1.79606 1.616456,-1.79606 2.200176,-1.79606 0.808228,0 0.808228,1.03273 0,0.26941 -0.987834,2.46959 -0.942933,2.20017 -2.783897,4.66976 -1.840964,2.42468 -3.681928,2.42468 -2.200176,0 -3.053306,-3.81663 -0.808228,-3.81663 -0.808228,-12.21322 v -15.35634 q -0.808228,1.21235 -2.469586,3.41252 l -19.217868,25.7286 q -0.898031,1.21234 -2.110374,1.21234 z"
         style="font-style:italic;font-variant:normal;font-weight:500;font-stretch:normal;font-size:91.9584px;font-family:'CMU Serif';-inkscape-font-specification:'CMU Serif Medium Italic';fill:#ffffff;stroke-width:0.47895"
         id="path16" />
    </g>
  </g>
</svg>
